# xmcd
#
# Track frame offsets:
#	150
#	16745
#	32767
#	51692
#	73200
#	100255
#	120307
#	146190
#	172560
#
# Disc length: 2707 seconds
#
# Revision: 1
# Processed by: cddbd v1.5.1PL2 Copyright (c) Steve Scherf et al.
# Submitted via: audiograbber 1.81.02
#
DISCID=770a9109
DTITLE=Ladybird Sunshine - Sunrise II - Phoenix Out Of The Ashes
DYEAR=2001
DGENRE=R&B
TTITLE0=Wounded Soldier
TTITLE1=Adorable You
TTITLE2=Midnight Mood
TTITLE3=Trust Your Heart
TTITLE4=Midnight Train To Georgia
TTITLE5=Yesterday I Heard The Rain
TTITLE6=Get Here
TTITLE7=My Favorite Things
TTITLE8=The World is a Ghetto
EXTD=
EXTT0=
EXTT1=
EXTT2=
EXTT3=
EXTT4=
EXTT5=
EXTT6=
EXTT7=
EXTT8=
PLAYORDER=
